<svg width="36" height="36" viewBox="0 0 36 36" fill="none" xmlns="http://www.w3.org/2000/svg">
<path d="M13.1088 6.0987C12.4729 6.0987 11.765 6.51144 11.229 7.58328L10.7504 8.54094C10.9247 8.52666 11.0997 8.51914 11.2745 8.51914C12.5416 8.51914 13.8061 8.89623 14.9216 9.64252V7.46396C14.3943 6.48542 13.7192 6.09863 13.1088 6.09863L13.1088 6.0987ZM22.8912 6.0987C22.2809 6.0987 21.6059 6.48542 21.0786 7.46403V9.6433C22.3487 8.79533 23.8134 8.4283 25.2513 8.54375L24.771 7.58328C24.235 6.51137 23.5271 6.0987 22.8911 6.0987H22.8912ZM11.2745 9.74975C9.93501 9.74975 8.59697 10.2907 7.49587 11.3669L4.86759 15.9666C5.88656 15.4925 7.02147 15.2271 8.21728 15.2271C11.027 15.2271 13.502 16.689 14.9216 18.8921V11.2391C13.8463 10.2466 12.5605 9.74975 11.2745 9.74975ZM24.8049 9.75207C23.4927 9.73056 22.1759 10.226 21.0786 11.2388V18.892C22.4982 16.6891 24.9732 15.2271 27.7827 15.2271C28.9787 15.2271 30.1136 15.4925 31.1326 15.9666L28.5043 11.3669C27.425 10.312 26.1172 9.77366 24.8051 9.75207H24.8049ZM18 10.6844C17.6405 10.6844 17.1645 10.8795 16.1871 11.3613V20.7139C16.6966 20.3402 17.3237 20.1185 18 20.1185C18.6764 20.1185 19.3034 20.3403 19.8129 20.7139V11.3613C18.8355 10.8795 18.3595 10.6844 18 10.6844ZM8.21742 16.4927C4.50724 16.4927 1.51312 19.4868 1.51312 23.1969C1.51312 26.907 4.50724 29.9012 8.21742 29.9012C11.9275 29.9012 14.9215 26.907 14.9215 23.1969C14.9215 19.4868 11.9275 16.4927 8.21735 16.4927H8.21742ZM27.7826 16.4927C24.0725 16.4927 21.0785 19.4868 21.0785 23.1969C21.0785 26.907 24.0725 29.9012 27.7826 29.9012C31.4928 29.9012 34.4869 26.907 34.4869 23.1969C34.4869 19.4868 31.4928 16.4927 27.7826 16.4927H27.7826ZM8.10724 17.8289C8.19335 17.8277 8.27949 17.8284 8.36557 17.831C8.88194 17.8469 9.39874 17.9338 9.89627 18.0994C12.4867 18.8969 14.0971 21.732 13.4556 24.3649C12.9176 27.0187 10.2596 28.9008 7.57786 28.5253C4.85339 28.2535 2.69986 25.7425 2.85567 23.007C2.86741 22.2047 3.07596 21.4365 3.43223 20.7482C3.5581 21.1062 3.79189 21.4163 4.10137 21.6358C4.41085 21.8554 4.7808 21.9735 5.16023 21.974C5.40111 21.974 5.63963 21.9266 5.86218 21.8345C6.08473 21.7423 6.28695 21.6072 6.4573 21.4369C6.62764 21.2666 6.76278 21.0644 6.85498 20.8419C6.94719 20.6194 6.99466 20.3808 6.99469 20.14C6.99424 19.7603 6.876 19.3902 6.65627 19.0806C6.43655 18.7709 6.12617 18.5371 5.76794 18.4114C6.40483 18.0814 7.1107 17.8775 7.84962 17.8386C7.93539 17.8335 8.02126 17.8303 8.10717 17.8289H8.10724ZM27.6724 17.8289C27.7585 17.8277 27.8446 17.8284 27.9307 17.831C28.447 17.8469 28.964 17.9338 29.4616 18.0994C32.052 18.8969 33.6623 21.732 33.0209 24.3649C32.4828 27.0186 29.8249 28.9008 27.1434 28.5255C24.4188 28.2537 22.2652 25.7424 22.421 23.0068C22.4328 22.2046 22.6413 21.4365 22.9976 20.7482C23.1235 21.1062 23.3572 21.4163 23.6667 21.6358C23.9762 21.8553 24.3461 21.9735 24.7255 21.974C25.212 21.974 25.6784 21.7808 26.0224 21.4368C26.3664 21.0929 26.5596 20.6264 26.5597 20.14C26.5593 19.7604 26.4411 19.3902 26.2214 19.0806C26.0017 18.771 25.6914 18.5372 25.3332 18.4114C25.9701 18.0814 26.6759 17.8775 27.4147 17.8386C27.5005 17.8335 27.5863 17.8303 27.6724 17.8289ZM18 21.3841C16.9913 21.3841 16.1871 22.1882 16.1871 23.1969C16.1871 24.2056 16.9913 25.0097 18 25.0097C19.0087 25.0097 19.8129 24.2056 19.8129 23.1969C19.8129 22.1882 19.0087 21.3842 18 21.3842V21.3841Z" fill="black"/>
</svg>
